<svg height="73" viewBox="0 0 73 73" width="73" xmlns="http://www.w3.org/2000/svg" xmlns:xlink="http://www.w3.org/1999/xlink"><mask id="a" fill="#fff"><rect fill="#fff" fill-rule="evenodd" height="69" rx="14" width="69"/></mask><g fill="none" fill-rule="evenodd"><rect fill="#ed6d7d" fill-rule="nonzero" height="71" rx="14" stroke="#ae2318" stroke-width="2" width="71" x="1" y="1"/><g transform="translate(2 2)"><rect height="71" rx="14" stroke="#ae2318" stroke-width="2" width="71" x="-1" y="-1"/><g mask="url(#a)"><g transform="translate(-2 -4)"><g fill-rule="nonzero"><path d="m64.3027344 21.3867188h-55.60546878c-1.18111718 0-2.13867187-.9575547-2.13867187-2.1386719 0-10.61337307 8.77397265-19.2480469 19.55858205-19.2480469h20.7655058c10.784752 0 19.5587246 8.63467383 19.5587246 19.2480469 0 1.1811172-.9575546 2.1386719-2.1386718 2.1386719z" fill="#fdf16c"/><path d="m46.8826816 0h-10.3826816v21.3867188h27.8027344c1.1811172 0 2.1386718-.9575547 2.1386718-2.1386719 0-10.61337307-8.7739726-19.2480469-19.5587246-19.2480469z" fill="#fae168"/><circle cx="32.222656" cy="10.693359" fill="#ed6d7d" r="2.138672"/><circle cx="23.667969" cy="10.693359" fill="#ed6d7d" r="2.138672"/><circle cx="40.777344" cy="10.693359" fill="#d44854" r="2.138672"/><circle cx="49.332031" cy="10.693359" fill="#d44854" r="2.138672"/><path d="m65.1582031 73h-57.31640622c-4.3239668 0-7.84179688-3.5178301-7.84179688-7.8417969v-40.2070312c0-4.3239668 3.51783008-7.8417969 7.84179688-7.8417969h57.31640622c4.3239668 0 7.8417969 3.5178301 7.8417969 7.8417969v40.2070312c0 4.3239668-3.5178301 7.8417969-7.8417969 7.8417969z" fill="#ed6d7d"/><path d="m65.1582031 17.109375h-28.6582031v55.890625h28.6582031c4.3239668 0 7.8417969-3.5178301 7.8417969-7.8417969v-40.2070312c0-4.3239668-3.5178301-7.8417969-7.8417969-7.8417969z" fill="#d44854"/><path d="m10.8359375 27.9524414h51.328125v25.6640625h-51.328125z" fill="#fff"/><path d="m36.5 27.9524414h25.6640625v25.6640625h-25.6640625z" fill="#e4dfd9"/><path d="m27.9453125 27.1386055c-1.1811172 0-2.1386719.8727207-2.1386719 1.9494707v23.3927929c0 1.0766075.9575547 1.9494707 2.1386719 1.9494707s2.1386719-.8727207 2.1386719-1.9494707v-23.3927929c0-1.0766074-.9575547-1.9494707-2.1386719-1.9494707z" fill="#d44854"/><path d="m45.0546875 27.1386055c-1.1811172 0-2.1386719.8727207-2.1386719 1.9494707v23.3927929c0 1.0766075.9575547 1.9494707 2.1386719 1.9494707s2.1386719-.8727207 2.1386719-1.9494707v-23.3927929c0-1.0766074-.9575547-1.9494707-2.1386719-1.9494707z" fill="#ae2318"/><path d="m62.1640625 55.7551758h-51.328125c-1.18111719 0-2.13867188-.9575547-2.13867188-2.1386719v-25.6640625c0-1.1811172.95755469-2.1386719 2.13867188-2.1386719h51.328125c1.1811172 0 2.1386719.9575547 2.1386719 2.1386719v25.6640625c0 1.1811172-.9575547 2.1386719-2.1386719 2.1386719zm-49.1894531-4.2773438h47.0507812v-21.3867187h-47.0507812z" fill="#d44854"/></g><path d="m36.5 30.0911133h23.5253906v21.3867187h-23.5253906z" fill="none"/><path d="m12.9746094 30.0911133h23.5253906v21.3867187h-23.5253906z" fill="none"/><path d="m62.1640625 25.8137695h-25.6640625v4.2773438h23.5253906v21.3867187h-23.5253906v4.2773438h25.6640625c1.1811172 0 2.1386719-.9575547 2.1386719-2.1386719v-25.6640625c0-1.1811172-.9575547-2.1386719-2.1386719-2.1386719z" fill="#ae2318" fill-rule="nonzero"/><path d="m22.1449492 37.1364687c-.0929609-.202746-.2954219-.3326347-.518414-.3326347h-4.910961c-.3149551 0-.5703125.2553574-.5703125.5703125v1.2377207c0 .3149551.2553574.5703125.5703125.5703125h2.6612207l-2.5749609 4.8100156c-.0946719.1766543-.0895391.3900938.0135449.5621856.103084.1719492.2887207.2771718.4893281.2771718h1.6968223c.2132969 0 .4087715-.1190527.5065801-.3083965l3.0644316-5.9289687c.0805567-.1558379.0849766-.3401914.011834-.4995938z" fill="#5a5555" fill-rule="nonzero"/><path d="m39.2543242 37.1364687c-.0929609-.2026035-.2954219-.3326347-.5185566-.3326347h-4.910961c-.314955 0-.5703125.2553574-.5703125.5703125v1.2377207c0 .3149551.2553575.5703125.5703125.5703125h2.6610782l-2.574961 4.8100156c-.0946718.1766543-.089539.3900938.0135449.5621856.103084.1719492.2887208.2771718.4893282.2771718h1.6968222c.2132969 0 .4087715-.1190527.5065801-.3083965l3.0644317-5.9289687c.080414-.1558379.0848339-.3400488.0118339-.4995938z" fill="#5a5555" fill-rule="nonzero"/><path d="m39.6934648 38.0947363-.4391406-.9582676c-.0929609-.2026035-.2954219-.3326347-.5185566-.3326347h-2.2357676v7.8724512c.046623-.0436289.0869727-.0945293.1173418-.153129l3.0644316-5.9289687c.0804141-.1556953.0846914-.3399063.0116914-.4994512z" fill="#453f3f" fill-rule="nonzero"/><path d="m56.8028398 38.0947363-.4391406-.9582676c-.0929609-.2026035-.2954219-.3326347-.5185566-.3326347h-4.9108184c-.3149551 0-.5703125.2553574-.5703125.5703125v1.2377207c0 .3149551.2553574.5703125.5703125.5703125h2.6609356l-2.5748184 4.8100156c-.0946719.1766543-.0895391.3900938.0135449.5621856.103084.1719492.2887207.2771718.4893282.2771718h1.6966796c.2132969 0 .4086289-.1190527.5067227-.3083965l3.0642891-5.9289687c.0805566-.1556953.0848339-.3399063.0118339-.4994512z" fill="#453f3f" fill-rule="nonzero"/><path d="m62.1640625 64.5878906h-51.328125c-1.18111719 0-2.13867188-.9575547-2.13867188-2.1386718 0-1.1811172.95755469-2.1386719 2.13867188-2.1386719h51.328125c1.1811172 0 2.1386719.9575547 2.1386719 2.1386719 0 1.1811171-.9575547 2.1386718-2.1386719 2.1386718z" fill="#d44854" fill-rule="nonzero"/><path d="m62.1640625 60.3105469h-25.6640625v4.2773437h25.6640625c1.1811172 0 2.1386719-.9575547 2.1386719-2.1386718 0-1.1811172-.9575547-2.1386719-2.1386719-2.1386719z" fill="#ae2318" fill-rule="nonzero"/></g></g></g></g></svg>